# Blender v2.90.1 OBJ File: 'UI-indicators-v2-blended.blend'
# www.blender.org
mtllib Y-Axis-Pointer.mtl
o Y-Axis-Pointer_Cone
v 0.005709 0.147118 -0.028701
v 0.011199 0.147118 -0.027036
v 0.016258 0.147118 -0.024332
v 0.020692 0.147118 -0.020692
v 0.024332 0.147118 -0.016258
v 0.027036 0.147118 -0.011199
v 0.028701 0.147118 -0.005709
v 0.029264 0.147118 0.000000
v 0.028701 0.147118 0.005709
v 0.027036 0.147118 0.011199
v 0.024332 0.147118 0.016258
v 0.020692 0.147118 0.020693
v 0.016258 0.147118 0.024332
v 0.011199 0.147118 0.027036
v 0.005709 0.147118 0.028701
v -0.000000 0.147118 0.029264
v -0.005709 0.147118 0.028701
v -0.011199 0.147118 0.027036
v -0.016258 0.147118 0.024332
v -0.000000 0.150000 0.000000
v -0.020692 0.147118 0.020693
v -0.024332 0.147118 0.016258
v -0.027036 0.147118 0.011199
v -0.028701 0.147118 0.005709
v -0.029264 0.147118 0.000000
v -0.028701 0.147118 -0.005709
v -0.027036 0.147118 -0.011199
v -0.024332 0.147118 -0.016258
v -0.020692 0.147118 -0.020692
v -0.016258 0.147118 -0.024332
v -0.011199 0.147118 -0.027036
v -0.005709 0.147118 -0.028701
v 0.000000 0.147118 -0.029264
v 0.000000 0.893950 0.000000
v 0.000000 0.893950 -0.150000
v 0.029264 0.893950 -0.147118
v 0.057403 0.893950 -0.138582
v 0.083336 0.893950 -0.124720
v 0.106066 0.893950 -0.106066
v 0.124720 0.893950 -0.083336
v 0.138582 0.893950 -0.057403
v 0.147118 0.893950 -0.029264
v 0.150000 0.893950 -0.000000
v 0.147118 0.893950 0.029264
v 0.138582 0.893950 0.057402
v 0.124720 0.893950 0.083336
v 0.106066 0.893950 0.106066
v 0.083336 0.893950 0.124720
v 0.057402 0.893950 0.138582
v 0.029264 0.893950 0.147118
v -0.000000 0.893950 0.150000
v -0.029264 0.893950 0.147118
v -0.057403 0.893950 0.138582
v -0.083336 0.893950 0.124720
v -0.106066 0.893950 0.106066
v -0.124721 0.893950 0.083335
v -0.138582 0.893950 0.057402
v -0.147118 0.893950 0.029263
v -0.150000 0.893950 -0.000000
v -0.147118 0.893950 -0.029264
v -0.138582 0.893950 -0.057403
v -0.124720 0.893950 -0.083336
v -0.106066 0.893950 -0.106066
v -0.083335 0.893950 -0.124721
v -0.057402 0.893950 -0.138582
v -0.029263 0.893950 -0.147118
v 0.000000 1.106050 0.000000
v 0.000000 0.893950 0.000000
v -0.046194 0.893950 0.019134
v -0.049039 0.893950 0.009754
v -0.049039 0.893950 -0.009755
v -0.050000 0.893950 -0.000000
v -0.046194 0.893950 -0.019134
v -0.035355 0.893950 -0.035355
v -0.041573 0.893950 -0.027779
v -0.035355 0.893950 0.035355
v -0.041574 0.893950 0.027779
v -0.027778 0.893950 -0.041574
v -0.019134 0.893950 -0.046194
v -0.019134 0.893950 0.046194
v -0.027779 0.893950 0.041573
v 0.000000 0.893950 -0.050000
v -0.009754 0.893950 -0.049039
v -0.009755 0.893950 0.049039
v -0.000000 0.893950 0.050000
v 0.009755 0.893950 -0.049039
v 0.019134 0.893950 -0.046194
v 0.027779 0.893950 -0.041573
v 0.046194 0.893950 0.019134
v 0.049039 0.893950 0.009755
v 0.027778 0.893950 0.041573
v 0.035355 0.893950 0.035355
v 0.009755 0.893950 0.049039
v 0.035355 0.893950 -0.035355
v 0.041573 0.893950 -0.027778
v 0.046194 0.893950 -0.019134
v 0.049039 0.893950 -0.009755
v 0.050000 0.893950 -0.000000
v 0.019134 0.893950 0.046194
v 0.041573 0.893950 0.027778
v 0.041574 0.140827 -0.027778
v 0.046194 0.140827 -0.019134
v 0.049039 0.140827 -0.009754
v 0.050000 0.140827 0.000000
v 0.049039 0.140827 0.009755
v 0.019134 0.140827 -0.046194
v 0.027779 0.140827 -0.041573
v 0.035355 0.140827 -0.035355
v 0.046194 0.140827 0.019134
v 0.009755 0.140827 -0.049039
v 0.000000 0.140827 -0.050000
v -0.009755 0.140827 -0.049039
v 0.009754 0.140827 0.049039
v -0.000000 0.140827 0.050000
v -0.019134 0.140827 -0.046194
v -0.027779 0.140827 -0.041573
v -0.050000 0.140827 0.000000
v -0.049039 0.140827 0.009755
v -0.041573 0.140827 0.027779
v -0.035355 0.140827 0.035355
v 0.041573 0.140827 0.027779
v 0.035355 0.140827 0.035355
v 0.027778 0.140827 0.041573
v 0.019134 0.140827 0.046194
v -0.009755 0.140827 0.049039
v -0.035355 0.140827 -0.035355
v -0.027778 0.140827 0.041573
v -0.019134 0.140827 0.046194
v -0.041574 0.140827 -0.027778
v -0.046194 0.140827 -0.019134
v -0.046194 0.140827 0.019134
v -0.049039 0.140827 -0.009754
v 0.000000 0.893950 -0.150000
v 0.029264 0.893950 -0.147118
v 0.057403 0.893950 -0.138582
v 0.083336 0.893950 -0.124720
v 0.106066 0.893950 -0.106066
v 0.124720 0.893950 -0.083336
v 0.138582 0.893950 -0.057403
v 0.147118 0.893950 -0.029264
v 0.150000 0.893950 -0.000000
v 0.147118 0.893950 0.029264
v 0.138582 0.893950 0.057402
v 0.124720 0.893950 0.083336
v 0.106066 0.893950 0.106066
v 0.083336 0.893950 0.124720
v 0.057402 0.893950 0.138582
v 0.029264 0.893950 0.147118
v -0.000000 0.893950 0.150000
v -0.029264 0.893950 0.147118
v -0.057403 0.893950 0.138582
v -0.083336 0.893950 0.124720
v -0.106066 0.893950 0.106066
v -0.124721 0.893950 0.083335
v -0.138582 0.893950 0.057402
v -0.147118 0.893950 0.029263
v -0.150000 0.893950 -0.000000
v -0.147118 0.893950 -0.029264
v -0.138582 0.893950 -0.057403
v -0.124720 0.893950 -0.083336
v -0.106066 0.893950 -0.106066
v -0.083335 0.893950 -0.124721
v -0.057402 0.893950 -0.138582
v -0.029263 0.893950 -0.147118
v -0.049039 0.893950 0.009754
v -0.046194 0.893950 0.019134
v -0.049039 0.893950 -0.009755
v -0.050000 0.893950 -0.000000
v -0.046194 0.893950 -0.019134
v -0.035355 0.893950 -0.035355
v -0.041573 0.893950 -0.027779
v -0.041574 0.893950 0.027779
v -0.035355 0.893950 0.035355
v -0.019134 0.893950 -0.046194
v -0.027778 0.893950 -0.041574
v -0.027779 0.893950 0.041573
v -0.019134 0.893950 0.046194
v 0.000000 0.893950 -0.050000
v -0.009754 0.893950 -0.049039
v -0.009755 0.893950 0.049039
v -0.000000 0.893950 0.050000
v 0.009755 0.893950 -0.049039
v 0.019134 0.893950 -0.046194
v 0.027779 0.893950 -0.041573
v 0.046194 0.893950 0.019134
v 0.049039 0.893950 0.009755
v 0.027778 0.893950 0.041573
v 0.035355 0.893950 0.035355
v 0.009755 0.893950 0.049039
v 0.035355 0.893950 -0.035355
v 0.041573 0.893950 -0.027778
v 0.046194 0.893950 -0.019134
v 0.049039 0.893950 -0.009755
v 0.050000 0.893950 -0.000000
v 0.019134 0.893950 0.046194
v 0.041573 0.893950 0.027778
v 0.049039 0.140827 -0.009754
v 0.046194 0.140827 -0.019134
v 0.050000 0.140827 0.000000
v 0.049039 0.140827 0.009755
v 0.027779 0.140827 -0.041573
v 0.019134 0.140827 -0.046194
v 0.035355 0.140827 -0.035355
v 0.041574 0.140827 -0.027778
v 0.046194 0.140827 0.019134
v 0.009755 0.140827 -0.049039
v 0.000000 0.140827 -0.050000
v -0.009755 0.140827 -0.049039
v -0.000000 0.140827 0.050000
v 0.009754 0.140827 0.049039
v -0.019134 0.140827 -0.046194
v -0.027779 0.140827 -0.041573
v -0.050000 0.140827 0.000000
v -0.049039 0.140827 0.009755
v -0.041573 0.140827 0.027779
v -0.035355 0.140827 0.035355
v -0.027778 0.140827 0.041573
v 0.041573 0.140827 0.027779
v 0.035355 0.140827 0.035355
v 0.027778 0.140827 0.041573
v 0.019134 0.140827 0.046194
v -0.009755 0.140827 0.049039
v -0.035355 0.140827 -0.035355
v -0.019134 0.140827 0.046194
v -0.041574 0.140827 -0.027778
v -0.046194 0.140827 -0.019134
v -0.049039 0.140827 -0.009754
v -0.046194 0.140827 0.019134
vt 0.750000 0.937500
vt 0.718750 0.937500
vt 0.734375 1.000000
vt 0.687500 0.937500
vt 0.703125 1.000000
vt 0.656250 0.937500
vt 0.671875 1.000000
vt 0.625000 0.937500
vt 0.640625 1.000000
vt 0.593750 0.937500
vt 0.609375 1.000000
vt 0.562500 0.937500
vt 0.578125 1.000000
vt 0.531250 0.937500
vt 0.546875 1.000000
vt 0.500000 0.937500
vt 0.515625 1.000000
vt 0.468750 0.937500
vt 0.484374 1.000000
vt 0.437500 0.937500
vt 0.453124 1.000000
vt 0.406250 0.937500
vt 0.421874 1.000000
vt 0.375000 0.937500
vt 0.390624 1.000000
vt 0.343750 0.937500
vt 0.359375 1.000000
vt 0.312500 0.937500
vt 0.328125 1.000000
vt 0.281250 0.937500
vt 0.296875 1.000000
vt 0.250000 0.937500
vt 0.265625 1.000000
vt 0.218750 0.937500
vt 0.234375 1.000000
vt 0.187500 0.937500
vt 0.203125 1.000000
vt 0.156250 0.937500
vt 0.171875 1.000000
vt 0.125000 0.937500
vt 0.140625 1.000000
vt 0.093750 0.937500
vt 0.109375 1.000000
vt 0.062500 0.937500
vt 0.078125 1.000000
vt 0.031250 0.937500
vt 0.046875 1.000000
vt 0.000000 0.937500
vt 0.015625 1.000000
vt 1.000000 0.937500
vt 0.968750 0.937500
vt 0.984375 1.000000
vt 0.937500 0.937500
vt 0.953125 1.000000
vt 0.906250 0.937500
vt 0.921875 1.000000
vt 0.875000 0.937500
vt 0.890625 1.000000
vt 0.843750 0.937500
vt 0.859375 1.000000
vt 0.812500 0.937500
vt 0.828125 1.000000
vt 0.781250 0.937500
vt 0.796875 1.000000
vt 0.765625 1.000000
vt 0.687500 0.891442
vt 0.718750 0.891442
vt 0.781250 0.891442
vt 0.812500 0.891442
vt 0.000000 0.891442
vt 0.031250 0.891442
vt 0.343750 0.891442
vt 0.375000 0.891442
vt 0.437500 0.891442
vt 0.468750 0.891442
vt 0.625000 0.891442
vt 0.656250 0.891442
vt 0.062500 0.891442
vt 0.968750 0.891442
vt 0.937500 0.891442
vt 0.218750 0.891442
vt 0.250000 0.891442
vt 0.875000 0.891442
vt 0.843750 0.891442
vt 0.906250 0.891442
vt 1.000000 0.891442
vt 0.593750 0.891442
vt 0.406250 0.891442
vt 0.750000 0.891442
vt 0.093750 0.891442
vt 0.562500 0.891442
vt 0.531250 0.891442
vt 0.187500 0.891442
vt 0.156250 0.891442
vt 0.281250 0.891442
vt 0.312500 0.891442
vt 0.500000 0.891442
vt 0.125000 0.891442
vt 0.750000 0.250000
vt 0.750000 0.490000
vt 0.796822 0.485388
vt 0.250000 0.490000
vt 0.250000 0.250000
vt 0.296822 0.485388
vt 0.841844 0.471731
vt 0.341844 0.471731
vt 0.883337 0.449553
vt 0.383337 0.449553
vt 0.919706 0.419706
vt 0.419706 0.419706
vt 0.949553 0.383337
vt 0.449553 0.383337
vt 0.971731 0.341844
vt 0.471731 0.341844
vt 0.985388 0.296822
vt 0.485388 0.296822
vt 0.990000 0.250000
vt 0.490000 0.250000
vt 0.985388 0.203178
vt 0.485388 0.203178
vt 0.971731 0.158156
vt 0.471731 0.158156
vt 0.949553 0.116663
vt 0.449553 0.116663
vt 0.919706 0.080294
vt 0.419706 0.080294
vt 0.883337 0.050447
vt 0.383337 0.050447
vt 0.841844 0.028269
vt 0.341844 0.028269
vt 0.796822 0.014612
vt 0.296822 0.014612
vt 0.750000 0.010000
vt 0.250000 0.010000
vt 0.703178 0.014612
vt 0.203178 0.014612
vt 0.658156 0.028269
vt 0.158156 0.028269
vt 0.616663 0.050447
vt 0.116663 0.050447
vt 0.580294 0.080294
vt 0.080294 0.080294
vt 0.550447 0.116663
vt 0.050447 0.116663
vt 0.528269 0.158156
vt 0.028269 0.158156
vt 0.514611 0.203179
vt 0.014611 0.203179
vt 0.510000 0.250000
vt 0.010000 0.250000
vt 0.514612 0.296822
vt 0.014612 0.296822
vt 0.528269 0.341844
vt 0.028269 0.341844
vt 0.550447 0.383337
vt 0.050447 0.383337
vt 0.580295 0.419706
vt 0.080295 0.419706
vt 0.616663 0.449553
vt 0.116663 0.449553
vt 0.658156 0.471731
vt 0.158156 0.471731
vt 0.703179 0.485389
vt 0.203179 0.485389
vt 0.750000 0.250000
vt 0.765607 0.328463
vt 0.750000 0.330000
vt 0.780615 0.323910
vt 0.794446 0.316518
vt 0.806569 0.306569
vt 0.816517 0.294446
vt 0.823910 0.280615
vt 0.828463 0.265607
vt 0.830000 0.250000
vt 0.828463 0.234393
vt 0.823910 0.219385
vt 0.816517 0.205554
vt 0.806569 0.193431
vt 0.794446 0.183482
vt 0.780615 0.176090
vt 0.765607 0.171537
vt 0.750000 0.170000
vt 0.734393 0.171537
vt 0.719385 0.176090
vt 0.705554 0.183482
vt 0.693431 0.193431
vt 0.683482 0.205554
vt 0.676090 0.219385
vt 0.671537 0.234393
vt 0.670000 0.250000
vt 0.671537 0.265607
vt 0.676090 0.280615
vt 0.683482 0.294446
vt 0.693431 0.306569
vt 0.705554 0.316518
vt 0.719385 0.323910
vt 0.734393 0.328463
vt 0.343750 0.570414
vt 0.312500 0.946975
vt 0.312500 0.570414
vt 0.187500 0.570414
vt 0.156250 0.946975
vt 0.156250 0.570414
vt 0.875000 0.570414
vt 0.843750 0.946975
vt 0.843750 0.570414
vt 0.750000 0.570414
vt 0.718750 0.946975
vt 0.718750 0.570414
vt 0.687500 0.946975
vt 0.687500 0.570414
vt 0.625000 0.570414
vt 0.593750 0.946975
vt 0.593750 0.570414
vt 0.031250 0.570414
vt 0.000000 0.946975
vt 0.000000 0.570414
vt 0.062500 0.570414
vt 0.093750 0.946975
vt 0.062500 0.946975
vt 0.531250 0.570414
vt 0.500000 0.946975
vt 0.500000 0.570414
vt 0.812500 0.570414
vt 0.781250 0.946975
vt 0.781250 0.570414
vt 0.437500 0.570414
vt 0.406250 0.946975
vt 0.406250 0.570414
vt 0.218750 0.570414
vt 0.250000 0.946975
vt 0.218750 0.946975
vt 0.281250 0.570414
vt 0.250000 0.570414
vt 0.906250 0.570414
vt 0.937500 0.946975
vt 0.906250 0.946975
vt 0.562500 0.946975
vt 0.531250 0.946975
vt 0.125000 0.570414
vt 0.093750 0.570414
vt 0.562500 0.570414
vt 0.656250 0.570414
vt 0.625000 0.946975
vt 0.375000 0.946975
vt 0.375000 0.570414
vt 0.750000 0.946975
vt 0.968750 0.570414
vt 0.937500 0.570414
vt 0.125000 0.946975
vt 0.187500 0.946975
vt 0.468750 0.570414
vt 0.437500 0.946975
vt 0.656250 0.946975
vt 1.000000 0.570414
vt 0.968750 0.946975
vt 0.875000 0.946975
vt 0.812500 0.946975
vt 0.343750 0.946975
vt 0.281250 0.946975
vt 0.468750 0.946975
vt 0.031250 0.946975
vt 1.000000 0.946975
vn -0.0097 -0.9951 0.0980
vn -0.0286 -0.9951 0.0942
vn -0.0464 -0.9951 0.0869
vn -0.0625 -0.9951 0.0761
vn -0.0761 -0.9951 0.0625
vn -0.0869 -0.9951 0.0464
vn -0.0942 -0.9951 0.0286
vn -0.0980 -0.9951 0.0097
vn -0.0980 -0.9951 -0.0097
vn -0.0942 -0.9951 -0.0286
vn -0.0869 -0.9951 -0.0464
vn -0.0761 -0.9951 -0.0625
vn -0.0625 -0.9951 -0.0761
vn -0.0464 -0.9951 -0.0869
vn -0.0286 -0.9951 -0.0942
vn -0.0097 -0.9951 -0.0980
vn 0.0097 -0.9951 -0.0980
vn 0.0286 -0.9951 -0.0942
vn 0.0464 -0.9951 -0.0869
vn 0.0625 -0.9951 -0.0761
vn 0.0761 -0.9951 -0.0625
vn 0.0869 -0.9951 -0.0464
vn 0.0942 -0.9951 -0.0286
vn 0.0980 -0.9951 -0.0097
vn 0.0980 -0.9951 0.0097
vn 0.0942 -0.9951 0.0286
vn 0.0869 -0.9951 0.0464
vn 0.0761 -0.9951 0.0625
vn 0.0625 -0.9951 0.0761
vn 0.0464 -0.9951 0.0869
vn 0.0286 -0.9951 0.0942
vn 0.0097 -0.9951 0.0980
vn -0.0846 -0.9565 0.2790
vn 0.0846 -0.9565 0.2790
vn 0.2902 -0.9565 -0.0286
vn -0.1850 -0.9565 -0.2254
vn -0.2790 -0.9565 -0.0846
vn -0.1850 -0.9565 0.2254
vn 0.2790 -0.9565 -0.0846
vn 0.2790 -0.9565 0.0846
vn 0.0286 -0.9565 -0.2902
vn 0.1850 -0.9565 0.2254
vn 0.2571 -0.9565 0.1374
vn 0.2902 -0.9565 0.0286
vn -0.2254 -0.9565 0.1850
vn -0.1374 -0.9566 0.2571
vn -0.2254 -0.9565 -0.1850
vn 0.0286 -0.9565 0.2902
vn 0.2571 -0.9565 -0.1374
vn -0.2790 -0.9565 0.0846
vn 0.1374 -0.9565 0.2571
vn -0.0286 -0.9565 0.2902
vn -0.2571 -0.9565 -0.1374
vn 0.1374 -0.9565 -0.2571
vn 0.0846 -0.9565 -0.2790
vn -0.0846 -0.9565 -0.2790
vn -0.2902 -0.9565 -0.0286
vn 0.2254 -0.9565 -0.1850
vn -0.1374 -0.9565 -0.2571
vn -0.2902 -0.9565 0.0286
vn -0.0286 -0.9565 -0.2902
vn 0.2254 -0.9565 0.1850
vn 0.1850 -0.9565 -0.2254
vn -0.2571 -0.9565 0.1374
vn -0.2254 -0.9566 0.1850
vn -0.1374 -0.9565 0.2571
vn 0.0000 -1.0000 0.0000
vn 0.0000 0.5774 -0.8164
vn 0.0000 1.0000 0.0000
vn 0.1593 0.5774 -0.8007
vn 0.3124 0.5774 -0.7543
vn 0.4536 0.5774 -0.6789
vn 0.5773 0.5774 -0.5773
vn 0.6789 0.5774 -0.4536
vn 0.7543 0.5774 -0.3124
vn 0.8007 0.5774 -0.1593
vn 0.8164 0.5774 0.0000
vn 0.8007 0.5774 0.1593
vn 0.7543 0.5774 0.3124
vn 0.6789 0.5774 0.4536
vn 0.5773 0.5774 0.5773
vn 0.4536 0.5774 0.6789
vn 0.3124 0.5774 0.7543
vn 0.1593 0.5774 0.8007
vn 0.0000 0.5774 0.8164
vn -0.1593 0.5774 0.8007
vn -0.3124 0.5774 0.7543
vn -0.4536 0.5774 0.6789
vn -0.5773 0.5774 0.5773
vn -0.6789 0.5774 0.4536
vn -0.7543 0.5774 0.3124
vn -0.8007 0.5774 0.1593
vn -0.8164 0.5774 0.0000
vn -0.8007 0.5774 -0.1593
vn -0.7543 0.5774 -0.3124
vn -0.6789 0.5774 -0.4536
vn -0.5773 0.5774 -0.5773
vn -0.4536 0.5774 -0.6789
vn -0.3124 0.5774 -0.7543
vn -0.1593 0.5774 -0.8007
vn 0.5556 0.0000 0.8314
vn 0.3827 0.0000 0.9239
vn -0.3827 0.0000 0.9239
vn -0.5556 0.0000 0.8314
vn -0.7071 0.0000 -0.7071
vn -0.5556 0.0000 -0.8314
vn 0.0000 0.0000 -1.0000
vn 0.1951 0.0000 -0.9808
vn 0.3827 0.0000 -0.9239
vn 0.7071 0.0000 -0.7071
vn 0.8314 0.0000 -0.5556
vn -0.9808 0.0000 0.1951
vn -1.0000 0.0000 0.0000
vn -0.9239 0.0000 0.3827
vn -0.8314 0.0000 0.5556
vn 0.9808 0.0000 -0.1951
vn 1.0000 0.0000 0.0000
vn -0.3827 0.0000 -0.9239
vn -0.1951 0.0000 -0.9808
vn 0.9239 0.0000 0.3827
vn 0.8314 0.0000 0.5556
vn -0.1951 0.0000 0.9808
vn 0.0000 0.0000 1.0000
vn 0.1951 0.0000 0.9808
vn -0.8314 0.0000 -0.5556
vn -0.9239 0.0000 -0.3827
vn 0.9239 0.0000 -0.3827
vn -0.7071 0.0000 0.7071
vn 0.5556 0.0000 -0.8314
vn 0.7071 0.0000 0.7071
vn -0.9808 0.0000 -0.1951
vn 0.9808 0.0000 0.1951
g Y-Axis-Pointer_Cone_Material.001
usemtl Material.001
s off
f 33/1/1 1/2/1 20/3/1
f 1/2/2 2/4/2 20/5/2
f 2/4/3 3/6/3 20/7/3
f 3/6/4 4/8/4 20/9/4
f 4/8/5 5/10/5 20/11/5
f 5/10/6 6/12/6 20/13/6
f 6/12/7 7/14/7 20/15/7
f 7/14/8 8/16/8 20/17/8
f 8/16/9 9/18/9 20/19/9
f 9/18/10 10/20/10 20/21/10
f 10/20/11 11/22/11 20/23/11
f 11/22/12 12/24/12 20/25/12
f 12/24/13 13/26/13 20/27/13
f 13/26/14 14/28/14 20/29/14
f 14/28/15 15/30/15 20/31/15
f 15/30/16 16/32/16 20/33/16
f 16/32/17 17/34/17 20/35/17
f 17/34/18 18/36/18 20/37/18
f 18/36/19 19/38/19 20/39/19
f 19/38/20 21/40/20 20/41/20
f 21/40/21 22/42/21 20/43/21
f 22/42/22 23/44/22 20/45/22
f 23/44/23 24/46/23 20/47/23
f 24/46/24 25/48/24 20/49/24
f 25/50/25 26/51/25 20/52/25
f 26/51/26 27/53/26 20/54/26
f 27/53/27 28/55/27 20/56/27
f 28/55/28 29/57/28 20/58/28
f 29/57/29 30/59/29 20/60/29
f 30/59/30 31/61/30 20/62/30
f 31/61/31 32/63/31 20/64/31
f 32/63/32 33/1/32 20/65/32
f 202/66/33 1/2/33 110/67/33
f 208/68/34 31/61/34 211/69/34
f 117/70/35 24/46/35 214/71/35
f 220/72/36 12/24/36 219/73/36
f 205/74/37 9/18/37 200/75/37
f 203/76/38 3/6/38 201/77/38
f 24/46/39 131/78/39 214/71/39
f 27/53/40 227/79/40 226/80/40
f 125/81/41 16/32/41 114/82/41
f 30/59/42 126/83/42 212/84/42
f 28/55/43 226/80/43 129/85/43
f 26/51/44 117/86/44 227/79/44
f 101/87/45 4/8/45 203/76/45
f 3/6/46 202/66/46 201/77/46
f 219/73/47 11/22/47 121/88/47
f 33/1/48 208/68/48 111/89/48
f 23/44/49 119/90/49 131/78/49
f 7/14/50 102/91/50 103/92/50
f 31/61/51 212/84/51 211/69/51
f 1/2/52 111/89/52 110/67/52
f 121/88/53 10/20/53 205/74/53
f 19/38/54 128/93/54 127/94/54
f 18/36/55 125/81/55 128/93/55
f 113/95/56 14/28/56 124/96/56
f 200/75/57 8/16/57 104/97/57
f 22/42/58 120/98/58 119/90/58
f 124/96/59 13/26/59 220/72/59
f 104/97/60 7/14/60 103/92/60
f 16/32/61 113/95/61 114/82/61
f 29/57/62 129/85/62 126/83/62
f 21/40/63 127/94/63 120/98/63
f 102/91/64 5/10/64 101/87/64
f 202/66/33 2/4/33 1/2/33
f 208/68/34 32/63/34 31/61/34
f 117/70/35 25/48/35 24/46/35
f 220/72/36 13/26/36 12/24/36
f 205/74/37 10/20/37 9/18/37
f 203/76/38 4/8/38 3/6/38
f 24/46/39 23/44/39 131/78/39
f 27/53/40 26/51/40 227/79/40
f 125/81/41 17/34/41 16/32/41
f 30/59/42 29/57/42 126/83/42
f 28/55/43 27/53/43 226/80/43
f 26/51/44 25/50/44 117/86/44
f 101/87/65 5/10/65 4/8/65
f 3/6/66 2/4/66 202/66/66
f 219/73/47 12/24/47 11/22/47
f 33/1/48 32/63/48 208/68/48
f 23/44/49 22/42/49 119/90/49
f 7/14/50 6/12/50 102/91/50
f 31/61/51 30/59/51 212/84/51
f 1/2/52 33/1/52 111/89/52
f 121/88/53 11/22/53 10/20/53
f 19/38/54 18/36/54 128/93/54
f 18/36/55 17/34/55 125/81/55
f 113/95/56 15/30/56 14/28/56
f 200/75/57 9/18/57 8/16/57
f 22/42/58 21/40/58 120/98/58
f 124/96/59 14/28/59 13/26/59
f 104/97/60 8/16/60 7/14/60
f 16/32/61 15/30/61 113/95/61
f 29/57/62 28/55/62 129/85/62
f 21/40/63 19/38/63 127/94/63
f 102/91/64 6/12/64 5/10/64
s 1
f 34/99/67 133/100/67 134/101/67
f 35/102/68 67/103/69 36/104/70
f 34/99/67 134/101/67 135/105/67
f 36/104/70 67/103/69 37/106/71
f 34/99/67 135/105/67 136/107/67
f 37/106/71 67/103/69 38/108/72
f 34/99/67 136/107/67 137/109/67
f 38/108/72 67/103/69 39/110/73
f 34/99/67 137/109/67 138/111/67
f 39/110/73 67/103/69 40/112/74
f 34/99/67 138/111/67 139/113/67
f 40/112/74 67/103/69 41/114/75
f 34/99/67 139/113/67 140/115/67
f 41/114/75 67/103/69 42/116/76
f 34/99/67 140/115/67 141/117/67
f 42/116/76 67/103/69 43/118/77
f 34/99/67 141/117/67 142/119/67
f 43/118/77 67/103/69 44/120/78
f 34/99/67 142/119/67 143/121/67
f 44/120/78 67/103/69 45/122/79
f 34/99/67 143/121/67 144/123/67
f 45/122/79 67/103/69 46/124/80
f 34/99/67 144/123/67 145/125/67
f 46/124/80 67/103/69 47/126/81
f 34/99/67 145/125/67 146/127/67
f 47/126/81 67/103/69 48/128/82
f 34/99/67 146/127/67 147/129/67
f 48/128/82 67/103/69 49/130/83
f 34/99/67 147/129/67 148/131/67
f 49/130/83 67/103/69 50/132/84
f 34/99/67 148/131/67 149/133/67
f 50/132/84 67/103/69 51/134/85
f 34/99/67 149/133/67 150/135/67
f 51/134/85 67/103/69 52/136/86
f 34/99/67 150/135/67 151/137/67
f 52/136/86 67/103/69 53/138/87
f 34/99/67 151/137/67 152/139/67
f 53/138/87 67/103/69 54/140/88
f 34/99/67 152/139/67 153/141/67
f 54/140/88 67/103/69 55/142/89
f 34/99/67 153/141/67 154/143/67
f 55/142/89 67/103/69 56/144/90
f 34/99/67 154/143/67 155/145/67
f 56/144/90 67/103/69 57/146/91
f 34/99/67 155/145/67 156/147/67
f 57/146/91 67/103/69 58/148/92
f 34/99/67 156/147/67 157/149/67
f 58/148/92 67/103/69 59/150/93
f 34/99/67 157/149/67 158/151/67
f 59/150/93 67/103/69 60/152/94
f 34/99/67 158/151/67 159/153/67
f 60/152/94 67/103/69 61/154/95
f 34/99/67 159/153/67 160/155/67
f 61/154/95 67/103/69 62/156/96
f 34/99/67 160/155/67 161/157/67
f 62/156/96 67/103/69 63/158/97
f 34/99/67 161/157/67 162/159/67
f 63/158/97 67/103/69 64/160/98
f 34/99/67 162/159/67 163/161/67
f 64/160/98 67/103/69 65/162/99
f 34/99/67 163/161/67 164/163/67
f 65/162/99 67/103/69 66/164/100
f 34/99/67 164/163/67 133/100/67
f 66/164/100 67/103/69 35/102/68
f 68/165/69 182/166/69 178/167/69
f 68/165/69 183/168/69 182/166/69
f 68/165/69 184/169/69 183/168/69
f 68/165/69 190/170/69 184/169/69
f 68/165/69 191/171/69 190/170/69
f 68/165/69 192/172/69 191/171/69
f 68/165/69 193/173/69 192/172/69
f 68/165/69 194/174/69 193/173/69
f 68/165/69 186/175/69 194/174/69
f 68/165/69 185/176/69 186/175/69
f 68/165/69 196/177/69 185/176/69
f 68/165/69 188/178/69 196/177/69
f 68/165/69 187/179/69 188/178/69
f 68/165/69 195/180/69 187/179/69
f 68/165/69 189/181/69 195/180/69
f 68/165/69 181/182/69 189/181/69
f 68/165/69 180/183/69 181/182/69
f 68/165/69 177/184/69 180/183/69
f 68/165/69 176/185/69 177/184/69
f 68/165/69 173/186/69 176/185/69
f 68/165/69 172/187/69 173/186/69
f 68/165/69 166/188/69 172/187/69
f 68/165/69 165/189/69 166/188/69
f 68/165/69 168/190/69 165/189/69
f 68/165/69 167/191/69 168/190/69
f 68/165/69 169/192/69 167/191/69
f 68/165/69 171/193/69 169/192/69
f 68/165/69 170/194/69 171/193/69
f 68/165/69 175/195/69 170/194/69
f 68/165/69 174/196/69 175/195/69
f 68/165/69 179/197/69 174/196/69
f 68/165/69 178/167/69 179/197/69
f 123/198/101 99/199/102 221/200/102
f 224/201/103 81/202/104 217/203/104
f 223/204/105 78/205/106 116/206/106
f 207/207/107 86/208/108 206/209/108
f 206/209/108 87/210/109 106/211/109
f 108/212/110 95/213/111 204/214/111
f 118/215/112 72/216/113 213/217/113
f 228/218/114 77/219/115 69/220/114
f 197/221/116 98/222/117 199/223/117
f 115/224/118 83/225/119 112/226/119
f 109/227/120 100/228/121 218/229/121
f 222/230/122 85/231/123 84/232/122
f 210/233/124 85/231/123 209/234/123
f 225/235/125 73/236/126 75/237/125
f 197/221/116 96/238/127 97/239/116
f 216/240/128 77/219/115 215/241/115
f 204/214/111 96/238/127 198/242/127
f 107/243/129 94/244/110 108/212/110
f 218/229/121 92/245/130 122/246/130
f 112/226/119 82/247/107 207/207/107
f 132/248/131 73/236/126 130/249/126
f 217/203/104 76/250/128 216/240/128
f 222/230/122 80/251/103 224/201/103
f 105/252/132 89/253/120 109/227/120
f 106/211/109 88/254/129 107/243/129
f 213/255/113 71/256/131 132/248/131
f 223/204/105 75/237/125 74/257/105
f 116/206/106 79/258/118 115/224/118
f 122/246/130 91/259/101 123/198/101
f 221/200/102 93/260/124 210/233/124
f 199/223/117 90/261/132 105/252/132
f 228/218/114 70/262/112 118/215/112
f 123/198/101 91/259/101 99/199/102
f 224/201/103 80/251/103 81/202/104
f 223/204/105 74/257/105 78/205/106
f 207/207/107 82/247/107 86/208/108
f 206/209/108 86/208/108 87/210/109
f 108/212/110 94/244/110 95/213/111
f 118/215/112 70/262/112 72/216/113
f 228/218/114 215/241/115 77/219/115
f 197/221/116 97/239/116 98/222/117
f 115/224/118 79/258/118 83/225/119
f 109/227/120 89/253/120 100/228/121
f 222/230/122 209/234/123 85/231/123
f 210/233/124 93/260/124 85/231/123
f 225/235/125 130/249/126 73/236/126
f 197/221/116 198/242/127 96/238/127
f 216/240/128 76/250/128 77/219/115
f 204/214/111 95/213/111 96/238/127
f 107/243/129 88/254/129 94/244/110
f 218/229/121 100/228/121 92/245/130
f 112/226/119 83/225/119 82/247/107
f 132/248/131 71/256/131 73/236/126
f 217/203/104 81/202/104 76/250/128
f 222/230/122 84/232/122 80/251/103
f 105/252/132 90/261/132 89/253/120
f 106/211/109 87/210/109 88/254/129
f 213/255/113 72/263/113 71/256/131
f 223/204/105 225/235/125 75/237/125
f 116/206/106 78/205/106 79/258/118
f 122/246/130 92/245/130 91/259/101
f 221/200/102 99/199/102 93/260/124
f 199/223/117 98/222/117 90/261/132
f 228/218/114 69/220/114 70/262/112
